<?xml version="1.0" encoding="UTF-8"?>
<svg version="1.1" viewBox="0 0 1900 1900"  width="75" height="75" xmlns="http://www.w3.org/2000/svg">
<path transform="translate(625,448)" d="m0 0h125l3 3 13 28 12 25 13 29 19 41 24 52 14 30 11 23 11 24 17 38 14 29 9 20 6 12h2l3-10 2-73-1-21-3-23-4-10-6-7-10-6-10-3-11-2-20-1-1-3v-8l138-1 14-31 16-36 16-35 15-33 18-39 6-11 2-1h125l1 1v11l-1 1-23 2-15 2-11 7-6 8-4 10-2 15-1 33v99l2 6 21 7 21 10 12 8 10 9 5 4v2h2l10 13 8 14 5 11 5 20 1 6v19l-4 18-6 16-7 12-9 11-9 9-15 11-15 8-9 4-4 1v2l30 10 16 8 11 7 10 9 11 11 8 13 5 10 5 15 1 11 2 6v14l-2 7-1 12-7 19-10 19-11 14-12 12-17 12-16 8-24 8-23 4-32 3-32 1h-221l-3-1v-10l2-1 23-1 16-4 11-7 6-7 3-6 3-20 1-11 1-152-1-2-13 25-6 10-3 1-8-2-3-5-17-37-12-27-19-41-13-27-12-27-15-32-8-18-16-35-12-26-19-41-16-35-10-21-3-2v312l2 20 4 12 4 6 8 6 11 4 31 3 5 2v9l-2 1h-156l-1-1v-10l1-1 18-1 21-4 11-7 6-8 3-8 3-29v-314l-2-21-2-10-5-10-5-5-8-6-10-4-5-1-23-2-3-2v-11zm452 80-4 6-4 9-17 36-13 29-10 23v3l10 1h40v-107zm-52 129-7 1-4 5-9 19-7 16-10 23v119l9 3 18 1h63l1-1v-183l-3-2-10-1zm119 32v130l4 1 5-5 7-8 8-15 6-18 3-17v-8l-5-22-8-18-7-10-7-8-3-2zm-128 178-18 1-9 2-1 2-1 115v26l1 43 4 3 16 4 41 4h30l31-4 21-7 16-9 11-8 7-6 12-16 8-16 2-14 2-4v-22l-5-22-7-16-7-11-10-8-145-1v-10l28-2 13-2 9-6 5-4 3-6-1-5-4-1z" fill="#000000"/>
<path transform="translate(852,1127)" d="m0 0 1 3-9 11-9 12-10 17-9 20-6 20-4 20v22l3 9 5 4 5 1 8-5 6-7 1 2-6 8-7 7-9 5-6 1-6-3-6-8-3-9v-21l5-24 5-16 9-21 8-16v-3l-9 7-22 22-9 11-6 7-16 20-10 14-8 13-13 22-6 5-4-1-1-4 2-16 8-38 8-28 5-14-7 6-12 17-11 14-9 10-7 8-9 9-11 9-9 7-17 10-15 6-15 4-15 1-17-2-10-4-9-8-6-10-3-9v-12l4-11 6-9 8-6 4-2h3l-2 5-6 8-2 9v10l2 10 6 10 9 7 11 4 13 1 13-2 13-4 16-7 12-8 22-18 13-13 8-10 9-11 13-18 10-14 7-14-11-2-24-6-18-2h-23l-10 3-8 6-7 10-6 14-2 1 2-11 7-13 9-10 7-5 16-5h31l28 5 28 8 1 4-7 10-8 17-8 22-6 22-4 19-2 12 5-5 13-18 10-14 8-9 8-10 8-8 3-4h2l2-4 20-20 22-18 14-9z" fill="#000000"/>
<path transform="translate(1173,1125)" d="m0 0 16 8 11 7 5 5 5 8 1 3v12l-5 12-8 7-8 4-7 3 12 11 6 10 3 8v20l-4 10-6 8-11 8-10 4-15 3-17 1-21-1-22-6-18-8-10-6-6-5 1-7 2-2 6 1 12 6 6 1 9-3 6-5 7-14 6-18 9-30 6-15 6-12 9-12 2-5h-9l-12 3-8 4-12 11-9 12-1-2 7-12 10-10 12-7 13-4 26-4zm-9 12-5 5-4 5-8 16-12 36-7 20-9 17-5 7-9 6-11 2-1 5 4 4 17 8 19 4 7 1h13l15-4 8-4 7-6 5-9 2-9v-14l-4-10-9-10-10-6-11-5 1-3 6-3h17l9-6 4-5 4-11-1-9-4-8-7-7-8-4-10-3z" fill="#000000"/>
<path transform="translate(1339,1217)" d="m0 0h17l-2 4-2 2v14l-5 12-9 14-1 4 4 10 7 15 3 13-2 9-6 8-7 6-16 5h-16l-14-4-8-5-4-4-2-7v-10l4-8 7-6 9-4h2l-2 4-6 8-1 3v10l5 8 1 3 16 8h9l9-3 7-8 1-3v-11l-6-16-2-6v-15l-11-1-5-3-4-7v-10l4-10 6-8 8-7 7-3zm-9 8-6 4-4 8-1 4v9l3 6 6 3 6-2 5-8 2-6v-11l-6-7z" fill="#000000"/>
<path transform="translate(930,1217)" d="m0 0h16l-1 3-4 1 1 7v9l-4 10-10 16-1 4 4 11 8 17 2 9-1 8-6 10-11 7-16 4h-12l-16-4-6-4-6-7-1-2v-13l4-9 9-6 8-2-6 8-3 7 1 9 5 10 10 7 6 2h13l10-6 3-5 1-11-2-10-5-10-1-4v-12l1-5h-14l-5-5-3-8 1-9 6-12 6-7 10-6zm-9 8-7 3-5 10-1 10 4 8 3 2 7 1 5-5 4-10v-11l-4-6z" fill="#000000"/>
<path transform="translate(1307,1106)" d="m0 0h7l6 3 2 3v8l-1 3h-5l-7-3-11 1-10 5-13 12-11 15-10 18-7 14-9 24-4 13-3 13-3 16v13l1 4h5l4-2-4 5-7 5h-9l-3-5v-12l2-14 11-33 8-18 10-19 13-22 11-16 9-10 5-6 14-11z" fill="#000000"/>
<path transform="translate(988,1219)" d="m0 0h16l8 1 6-1 1 2-11 23-4 12v10l5 2 5-2-4 5-9 6-6-2-3-6-1-13-5 5-7 8-11 7-6 1-5-5-3-6v-14l5-12 9-10 9-7zm-1 3-8 3-7 8-4 8-2 7v14l3 5 4 2 9-7 9-11 12-20-1-5-5-3z" fill="#000000"/>
<path transform="translate(1280,1218)" d="m0 0h7l6 3 5 6 2 7-1 10-8 16-7 8-9 6-8 3h-6l-6-4-4-6-1-3v-13l5-12 7-10 7-6zm-7 8-6 4-5 8-1 3v20l4 6 3 2h7l7-5 4-8 2-6v-13l-3-7-4-4z" fill="#000000"/>
<path transform="translate(873,1218)" d="m0 0h7l6 3 4 5 1 6-7 8-11 4-15 4-1 11 3 7 4 3 10-1 8-5 2 1-9 8-8 4-5 1h-7l-6-3-5-7v-14l6-15 6-8 10-9zm-5 6-5 3-5 8 1 8 1 1 8-1 9-6 1-1v-7l-3-5z" fill="#000000"/>
<path transform="translate(1238,1265)" d="m0 0" fill="#000000"/>
<path transform="translate(834,1253)" d="m0 0" fill="#000000"/>
<path transform="translate(1099,1166)" d="m0 0" fill="#000000"/>
</svg>
